<svg width="196" height="40" viewBox="0 0 196 40" fill="none" xmlns="http://www.w3.org/2000/svg">
<g clip-path="url(#clip0_67_51)">
<path d="M129.823 15.7642C131.469 15.7642 132.86 15.9166 133.998 16.2213C135.135 16.5261 136.04 17.1152 136.71 17.9888C137.401 18.8421 137.746 20.0712 137.746 21.6761C137.746 22.3872 137.634 23.1185 137.411 23.8702C137.208 24.6016 136.944 25.2415 136.619 25.79C136.314 26.3386 136.04 26.6941 135.796 26.8566C135.511 27.0598 134.882 27.2223 133.906 27.3442C132.931 27.4458 131.783 27.4966 130.463 27.4966C129.996 27.4966 129.274 27.4762 128.299 27.4356V33.2256H122.814V15.8556C124.947 15.7947 127.283 15.7642 129.823 15.7642ZM132.108 23.5959C132.312 23.3318 132.413 22.8036 132.413 22.0113C132.413 20.9752 132.19 20.2438 131.743 19.8172C131.316 19.3906 130.564 19.1773 129.488 19.1773C129.122 19.1773 128.726 19.2077 128.299 19.2687V23.9007C128.502 23.921 128.899 23.9311 129.488 23.9311C131.052 23.9311 131.926 23.8194 132.108 23.5959ZM148.159 33.6217C145.132 33.6217 142.857 32.9107 141.333 31.4886C139.83 30.0462 139.078 27.7403 139.078 24.5711C139.078 21.4628 139.911 19.1976 141.577 17.7755C143.243 16.3534 145.447 15.6423 148.19 15.6423C153.959 15.6423 156.844 18.517 156.844 24.2664C156.844 27.1715 156.133 29.457 154.711 31.1229C153.309 32.7888 151.125 33.6217 148.159 33.6217ZM148.037 30.0259C148.606 30.0259 149.084 29.9344 149.47 29.7516C149.856 29.5484 150.16 29.2031 150.384 28.7155C150.81 27.8826 151.024 26.5214 151.024 24.632C151.024 22.7833 150.81 21.4425 150.384 20.6095C149.957 19.7563 149.175 19.3093 148.037 19.2687C147.611 19.2687 147.164 19.3195 146.696 19.4211C146.25 19.5023 145.965 19.6242 145.843 19.7867C145.599 20.0712 145.406 20.6806 145.264 21.6152C145.142 22.5294 145.081 23.535 145.081 24.632C145.081 26.3386 145.244 27.588 145.569 28.3803C145.792 28.9694 146.107 29.3961 146.514 29.6602C146.92 29.904 147.428 30.0259 148.037 30.0259ZM175.085 33.2256H169.326L168.289 28.8374C168.249 28.6749 168.178 28.4006 168.076 28.0146C167.995 27.6083 167.893 27.3137 167.771 27.1309C167.649 26.9277 167.477 26.7957 167.253 26.7347C166.684 26.755 165.852 26.7652 164.754 26.7652V33.2256H159.269V16.008C161.727 15.8252 164.023 15.7338 166.156 15.7338C168.086 15.7338 169.651 15.8963 170.849 16.2213C172.048 16.5261 172.942 17.0644 173.531 17.8364C174.14 18.5881 174.445 19.6242 174.445 20.9447C174.445 22.184 174.161 23.1591 173.592 23.8702C173.023 24.5609 172.109 24.9774 170.849 25.1196V25.3025C171.56 25.3634 172.149 25.597 172.617 26.0033C173.104 26.3893 173.429 26.8871 173.592 27.4966L175.085 33.2256ZM164.754 23.3217C164.937 23.342 165.293 23.3521 165.821 23.3521C167.385 23.3521 168.3 23.2201 168.564 22.956C168.807 22.7122 168.929 22.1434 168.929 21.2495C168.929 20.4165 168.706 19.8477 168.259 19.5429C167.832 19.2382 167.121 19.0858 166.126 19.0858C165.902 19.0858 165.445 19.1062 164.754 19.1468V23.3217ZM182.035 26.2167V33.2256H176.946V15.8556H182.096L186.698 22.8646C187.389 23.9007 187.917 24.7742 188.282 25.4853H188.374V22.5598V15.8556H193.432V33.2256H188.252L183.529 25.9119L182.157 23.8397H182.066L182.035 26.2167Z" fill="url(#paint0_linear_67_51)"/>
<path d="M11.2859 33.5161H4.70735L0.409342 16.8504H6.02307L8.24517 29.1012H8.39136L10.7597 16.8504H16.2564L18.6832 29.1012H18.7709L21.0222 16.8504H26.4021L22.1041 33.5161H15.5547L13.5665 22.8734H13.3911L11.2859 33.5161ZM37.1222 29.8613H32.2687L31.3915 33.5161H26.0117L31.3915 16.8504H38.2625L43.4084 33.5161H37.9993L37.1222 29.8613ZM34.6662 20.4467L32.9411 26.6159H36.4205L34.7831 20.4467H34.6662ZM52.2911 33.5161H47.0282V20.5051H42.3209V16.8504H56.9984V20.5051H52.2911V33.5161ZM71.3231 32.9606C70.6019 33.2725 69.7637 33.4966 68.8086 33.6331C67.8535 33.7695 66.9666 33.8377 66.1479 33.8377C63.497 33.8377 61.4211 33.1458 59.9202 31.7618C58.4193 30.3779 57.6689 28.2532 57.6689 25.3879C57.6689 22.4641 58.4583 20.281 60.0371 18.8386C61.616 17.3766 63.8381 16.6457 66.7034 16.6457C68.0679 16.6457 69.4908 16.8309 70.9722 17.2012C70.9722 17.5911 70.9332 18.1758 70.8553 18.9555C70.7773 19.7157 70.6993 20.2517 70.6214 20.5636H68.7794C67.4344 20.5636 66.3721 20.5928 65.5924 20.6513C64.8322 20.6903 64.3741 20.778 64.2182 20.9145C63.9258 21.1874 63.7017 21.7429 63.5457 22.581C63.3898 23.3997 63.3118 24.1891 63.3118 24.9493C63.3118 26.2748 63.4775 27.2981 63.8089 28.0193C64.1402 28.7211 64.5593 29.1889 65.0661 29.4228C65.5534 29.6567 66.3623 29.7736 67.4929 29.7736C68.3895 29.7736 69.559 29.6957 71.0015 29.5397L71.3231 32.9606ZM73.2731 16.8504H78.5652V22.9611H83.0971V16.8504H88.3892V33.5161H83.0971V26.3235H78.5652V33.5161H73.2731V16.8504Z" fill="white"/>
<g filter="url(#filter0_iiii_67_51)">
<path d="M107.434 13.4603C107.434 19.0556 101.217 23.563 98.1085 25.1172C101.839 24.4955 105.362 22.2678 106.657 21.2316C106.657 21.2316 105.88 24.3401 106.657 24.3401C107.434 24.3401 108.988 21.2316 108.988 21.2316C108.988 21.2316 112.457 22.4573 114.428 22.7858C111.32 20.4545 109.765 19.6773 109.765 13.4603C109.765 9.10843 107.693 5.94811 106.657 4.91194C107.434 4.13482 109.61 2.58057 112.097 2.58057C119.868 2.58057 123.754 7.24332 123.754 11.9061C123.754 16.5688 121.422 18.9002 118.314 22.7858C115.827 25.8944 105.103 36.7741 105.103 36.7741L91.8915 22.7858C89.5601 20.4545 86.4516 17.346 86.4516 13.4603C86.4516 7.24332 89.5601 2.58057 95.7771 2.58057C103.548 2.58057 107.434 6.4662 107.434 13.4603Z" fill="#F7C588"/>
</g>
<path d="M89.5602 18.123C86.4517 11.906 88.9062 5.68902 94.346 4.13477C91.8916 6.46614 88.7831 11.906 89.5602 18.123Z" fill="white"/>
</g>
<defs>
<filter id="filter0_iiii_67_51" x="86.4516" y="1.05929" width="38.8233" height="37.2359" filterUnits="userSpaceOnUse" color-interpolation-filters="sRGB">
<feFlood flood-opacity="0" result="BackgroundImageFix"/>
<feBlend mode="normal" in="SourceGraphic" in2="BackgroundImageFix" result="shape"/>
<feColorMatrix in="SourceAlpha" type="matrix" values="0 0 0 0 0 0 0 0 0 0 0 0 0 0 0 0 0 0 127 0" result="hardAlpha"/>
<feOffset dy="1.52128"/>
<feGaussianBlur stdDeviation="0.760638"/>
<feComposite in2="hardAlpha" operator="arithmetic" k2="-1" k3="1"/>
<feColorMatrix type="matrix" values="0 0 0 0 1 0 0 0 0 1 0 0 0 0 1 0 0 0 0.2 0"/>
<feBlend mode="normal" in2="shape" result="effect1_innerShadow_67_51"/>
<feColorMatrix in="SourceAlpha" type="matrix" values="0 0 0 0 0 0 0 0 0 0 0 0 0 0 0 0 0 0 127 0" result="hardAlpha"/>
<feOffset dy="-1.52128"/>
<feGaussianBlur stdDeviation="0.760638"/>
<feComposite in2="hardAlpha" operator="arithmetic" k2="-1" k3="1"/>
<feColorMatrix type="matrix" values="0 0 0 0 1 0 0 0 0 1 0 0 0 0 1 0 0 0 0.2 0"/>
<feBlend mode="normal" in2="effect1_innerShadow_67_51" result="effect2_innerShadow_67_51"/>
<feColorMatrix in="SourceAlpha" type="matrix" values="0 0 0 0 0 0 0 0 0 0 0 0 0 0 0 0 0 0 127 0" result="hardAlpha"/>
<feOffset dx="1.52128"/>
<feGaussianBlur stdDeviation="0.760638"/>
<feComposite in2="hardAlpha" operator="arithmetic" k2="-1" k3="1"/>
<feColorMatrix type="matrix" values="0 0 0 0 1 0 0 0 0 1 0 0 0 0 1 0 0 0 0.2 0"/>
<feBlend mode="normal" in2="effect2_innerShadow_67_51" result="effect3_innerShadow_67_51"/>
<feColorMatrix in="SourceAlpha" type="matrix" values="0 0 0 0 0 0 0 0 0 0 0 0 0 0 0 0 0 0 127 0" result="hardAlpha"/>
<feOffset dx="1.52128"/>
<feGaussianBlur stdDeviation="0.760638"/>
<feComposite in2="hardAlpha" operator="arithmetic" k2="-1" k3="1"/>
<feColorMatrix type="matrix" values="0 0 0 0 1 0 0 0 0 1 0 0 0 0 1 0 0 0 0.2 0"/>
<feBlend mode="normal" in2="effect3_innerShadow_67_51" result="effect4_innerShadow_67_51"/>
</filter>
<linearGradient id="paint0_linear_67_51" x1="124.755" y1="16.5991" x2="194.931" y2="33.0202" gradientUnits="userSpaceOnUse">
<stop stop-color="#3E78F4"/>
<stop offset="1" stop-color="#023CB8"/>
</linearGradient>
<clipPath id="clip0_67_51">
<rect width="195.484" height="40" fill="white"/>
</clipPath>
</defs>
</svg>
